<?xml version="1.0" standalone="no"?>
<!DOCTYPE svg PUBLIC "-//W3C//DTD SVG 20010904//EN"
 "http://www.w3.org/TR/2001/REC-SVG-20010904/DTD/svg10.dtd">
<svg version="1.0" xmlns="http://www.w3.org/2000/svg"
 width="967.000000pt" height="967.000000pt" viewBox="0 0 967.000000 967.000000"
 preserveAspectRatio="xMidYMid meet">
<metadata>
Created by potrace 1.14, written by Peter Selinger 2001-2017
</metadata>
<g transform="translate(0.000000,967.000000) scale(0.100000,-0.100000)"
fill="#000000" stroke="none">
<path d="M1692 9649 c-73 -29 -143 -99 -171 -173 -22 -58 -22 -66 -19 -545 l3
-486 24 -49 c33 -66 100 -129 164 -154 52 -20 77 -20 3147 -18 1702 1 3104 5
3115 8 73 21 149 89 188 168 22 45 22 48 22 545 0 411 -3 505 -14 530 -8 17
-15 33 -15 37 -3 24 -82 98 -132 123 l-59 30 -3100 2 c-3091 2 -3100 2 -3153
-18z"/>
<path d="M4608 6704 c-2 -1 -50 -5 -108 -8 -58 -4 -114 -9 -125 -12 -11 -2
-42 -6 -70 -9 -71 -7 -119 -14 -208 -31 -42 -9 -90 -18 -105 -20 -143 -25
-436 -116 -607 -189 -107 -46 -305 -143 -315 -154 -3 -3 -21 -15 -40 -25 -74
-41 -313 -204 -330 -226 -3 -3 -15 -13 -26 -21 -58 -39 -283 -253 -374 -355
-77 -86 -241 -302 -275 -362 -5 -9 -27 -45 -48 -78 -68 -109 -160 -291 -214
-423 -33 -82 -120 -335 -128 -374 -2 -10 -7 -27 -10 -37 -3 -10 -8 -29 -10
-42 -2 -13 -9 -41 -14 -63 -20 -81 -24 -100 -26 -120 -3 -19 -9 -59 -20 -115
-3 -14 -7 -41 -9 -60 -3 -19 -7 -51 -10 -70 -6 -35 -7 -49 -23 -210 -10 -110
-10 -608 1 -725 5 -49 9 -107 10 -127 0 -21 4 -38 7 -38 3 0 5 -10 4 -22 -1
-12 2 -43 7 -68 5 -25 10 -61 13 -80 4 -38 12 -82 21 -120 3 -14 8 -36 10 -50
3 -14 7 -38 11 -55 4 -16 8 -34 9 -40 4 -24 26 -102 33 -125 5 -14 19 -59 31
-100 26 -87 86 -249 125 -335 38 -86 134 -274 145 -285 3 -3 14 -21 24 -40 46
-83 200 -302 251 -356 5 -6 26 -30 45 -54 42 -53 225 -238 296 -300 70 -61 80
-69 170 -136 44 -32 81 -61 84 -64 18 -18 100 -70 100 -63 0 4 5 0 11 -9 5
-10 14 -18 18 -18 5 0 38 -18 73 -39 76 -46 260 -139 338 -171 30 -12 64 -26
75 -31 70 -31 265 -96 320 -106 17 -3 36 -10 43 -16 7 -5 15 -7 18 -4 3 3 23
-1 45 -8 21 -8 39 -12 39 -10 0 3 12 0 26 -6 15 -5 43 -12 63 -15 20 -3 44 -7
53 -10 19 -6 39 -9 103 -19 22 -3 47 -7 55 -10 8 -2 42 -6 75 -10 33 -3 74 -7
90 -9 210 -28 826 -28 966 -1 12 3 47 7 78 11 106 12 116 13 137 18 12 2 37 7
55 10 54 9 98 18 174 36 28 6 61 14 74 16 14 3 28 7 33 10 4 3 18 7 30 10 13
3 28 6 33 8 6 1 30 8 55 15 25 6 54 16 65 20 11 5 72 28 135 51 126 46 380
166 448 211 24 16 45 29 48 29 2 0 51 31 108 69 197 132 415 321 551 476 28
31 67 75 88 97 20 22 37 43 37 47 0 3 12 20 28 36 32 36 45 55 141 197 39 58
71 109 71 114 0 4 6 15 14 23 15 18 109 199 155 302 86 191 178 491 217 704 3
17 10 50 15 74 5 24 8 46 5 48 -2 3 0 18 4 34 10 35 24 145 35 288 3 35 8 68
12 74 3 6 1 7 -5 3 -9 -5 -9 0 -3 17 6 14 8 144 6 299 -3 256 -6 329 -20 453
-12 110 -20 167 -29 215 -3 19 -8 47 -11 63 -3 15 -7 38 -10 52 -3 14 -7 37
-10 51 -8 49 -57 238 -77 302 -11 34 -21 68 -22 75 -3 12 -12 37 -26 72 -4 11
-13 36 -20 55 -7 19 -18 49 -25 65 -7 17 -25 59 -40 95 -53 128 -224 440 -247
448 -4 2 -8 8 -8 13 0 10 -82 127 -135 192 -147 179 -310 347 -449 460 -21 18
-43 37 -50 42 -6 6 -58 45 -116 86 -179 128 -344 221 -590 332 -98 43 -374
134 -469 153 -12 3 -53 12 -90 20 -101 24 -119 28 -201 39 -25 4 -56 8 -70 10
-14 2 -34 6 -45 8 -11 3 -58 8 -105 12 -47 4 -103 9 -125 11 -44 5 -563 12
-567 8z m-845 -3354 c3 -3 7 -50 10 -105 8 -132 37 -279 75 -375 5 -14 11 -29
12 -35 1 -5 6 -16 12 -22 6 -7 7 -13 2 -13 -5 0 -4 -4 1 -8 9 -7 18 -22 67
-114 11 -21 23 -38 27 -38 3 0 14 -15 24 -33 22 -41 165 -181 227 -224 113
-76 278 -145 382 -159 24 -3 63 -10 87 -14 43 -8 288 -5 326 3 11 3 40 8 65
12 104 17 263 83 360 148 131 89 261 238 332 382 45 89 89 219 102 300 3 17 7
44 10 60 8 43 17 153 17 200 l1 40 421 0 422 0 0 -103 c0 -56 -2 -102 -5 -102
-3 0 -5 -19 -6 -43 -1 -43 -11 -134 -19 -171 -3 -12 -7 -32 -9 -46 -31 -181
-124 -435 -219 -592 -98 -164 -298 -390 -432 -489 -33 -24 -62 -46 -65 -50
-13 -14 -167 -101 -251 -142 -144 -69 -352 -133 -494 -153 -16 -2 -42 -6 -57
-9 -162 -27 -531 -27 -713 1 -299 45 -566 147 -794 303 -90 61 -162 123 -254
216 -59 60 -160 182 -177 216 -7 13 -16 26 -20 29 -20 14 -165 290 -153 290 3
0 1 6 -5 13 -10 13 -75 209 -88 267 -4 19 -9 40 -10 45 -7 32 -15 74 -19 105
-3 19 -8 44 -10 55 -11 54 -26 330 -19 350 4 10 828 15 837 5z"/>
</g>
</svg>
