<?xml version="1.0" encoding="utf-8"?>
<!-- Generator: Adobe Illustrator 26.0.2, SVG Export Plug-In . SVG Version: 6.00 Build 0)  -->
<svg version="1.1" id="Laag_1" xmlns="http://www.w3.org/2000/svg" xmlns:xlink="http://www.w3.org/1999/xlink" x="0px" y="0px"
	 viewBox="0 0 1500 1200" style="enable-background:new 0 0 1500 1200;" xml:space="preserve">
<style type="text/css">
	.st0{fill:#F9A0A1;}
	.st1{fill-rule:evenodd;clip-rule:evenodd;fill:#FFFFFF;}
	.st2{fill:#B26CA1;}
	.st3{fill:#F9A1A1;}
	.st4{fill:#F98586;}
	.st5{fill:#A45690;}
	.st6{fill:#8C4A7C;}
	.st7{fill:#24869E;}
	.st8{fill:#FC7793;}
	.st9{fill-rule:evenodd;clip-rule:evenodd;fill:#A45690;}
	.st10{fill:#333333;}
	.st11{fill:#262626;}
	.st12{fill:#1B6476;}
	.st13{fill:#2D39A9;}
	.st14{fill:#1F758A;}
	.st15{fill:#326497;}
	.st16{fill:#FA8184;}
	.st17{fill:#E6E6E6;}
	.st18{fill-rule:evenodd;clip-rule:evenodd;fill:#E6E6E6;}
</style>
<path class="st0" d="M388.1,613.3c-5.3-64.1,44.2-116.4,69.7-134.5l24.8,45.8c-26.4,23.9-75.8,77.3-62,100.2
	c17.2,28.6,2.9,25.8-8.6,6.7c-5.2-8.6-15.4,1.6-29.6,9.5C372.6,624.8,388.1,618.1,388.1,613.3z"/>
<path class="st1" d="M1043.3,511.1l25-61l2.8,1.1l-25,61L1043.3,511.1z"/>
<path class="st1" d="M1075.8,534.1l15.5-38.5l2.8,1.1l-15.5,38.5L1075.8,534.1z"/>
<path class="st1" d="M612.6,316.1l21-23l2.2,2l-21,23L612.6,316.1z"/>
<path class="st2" d="M1081.4,561.8c-85.9,50.6-90.9-1.1-77.2-62c9.6-43,19.4-83.2,62.3-76.2c32.3-6.5,34.2,2.6,44.7,31.6
	c10.5,28.9,21.4,74.4,33.7,83.1c12.3,8.8-47.3,17.5-68.4,8.8c-2.3-2.7-4.4-5.2-6.1-7.6L1081.4,561.8z"/>
<path class="st3" d="M1090.3,479.2c2.1,8.4-10.7,16.1-16.5,19c5,2.1,6.2,7.3,14.1,7.6l9.3,20.4c-13.7-5-35.9,0-34.2,45.6h-27.2
	c3.5-14,14-34.2,21.9-36.8l-10.5-17.5c-25.6,0-26.5-30.4-23.7-45.6c30.1-21.5,30.3-30.5,38.8-30.8c-2.7,20.1,2.7,32.1,13,38.1
	C1079.4,475.7,1088.2,470.8,1090.3,479.2z"/>
<path class="st4" d="M1066.5,506.1l-19.3,11.4l7.9,13.2L1066.5,506.1z"/>
<path class="st5" d="M856.8,597.8h36v71.8c0,6.2-5,11.2-11.2,11.2c-13.7,0-24.8-11.1-24.8-24.8V597.8z"/>
<path class="st2" d="M867.4,597.8h36v61.3c0,11.9-9.7,21.6-21.6,21.6c-8,0-14.4-6.5-14.4-14.4V597.8z"/>
<path class="st6" d="M861.8,606.1c0-1.5,1.3-2.8,2.8-2.8c1.5,0,2.8,1.3,2.8,2.8v40.6c0,1.5-1.3,2.8-2.8,2.8c-1.5,0-2.8-1.3-2.8-2.8
	V606.1z"/>
<path class="st3" d="M925.3,669c-33-1.4-45.1-8.2-43-29.4c2.8-27.3,13.8-11,20.7-11v-13.4c0-3.8,5.4,3.7,12,16.3
	c3.1,1.5,5.8,3.4,7.8,5.6L925.3,669z"/>
<path class="st7" d="M919.9,632.5c62.5,11.1,122.3-91.9,137.8-97.5c-26.9,19.2-26.9,76.3-25.4,102.6c-8,25.9-46.6,46-112.4,32.9
	C917.8,654.5,916.3,637.8,919.9,632.5z"/>
<path class="st8" d="M1052.7,1084.1h-37.8v22.2h37.8V1084.1z"/>
<path class="st3" d="M1052.7,1088h-37.8v18.3h37.8V1088z"/>
<path class="st2" d="M1054.3,1130.7c-0.1,2-0.1,3.3-0.1,3.3h-78.5c-1.3,0-2.2-1.3-1.8-2.6l0.2-0.7l1.6-4.5c0.4-1,1.1-1.9,2.1-2.3
	l37.1-18.5h37.4C1054.6,1110.1,1054.5,1124.3,1054.3,1130.7z"/>
<path class="st5" d="M1051.3,1131.1c0,0,0.1-1.3,0.1-3.3c0.2-5.4,0.2-16.3-1.1-22.5h2.5c2.2,4.8,2.1,19,2,25.4
	c-0.1,2-0.1,3.3-0.1,3.3h-78.5c-1.3,0-2.2-1.3-1.8-2.6l0.1-0.3H1051.3z"/>
<path class="st9" d="M1012.9,1110c0.2,0.3,0.1,0.7-0.2,0.9c-0.3,0.2-0.7,0.1-0.9-0.2c-0.2-0.3-0.1-0.7,0.2-0.9
	S1012.7,1109.7,1012.9,1110z M1010.7,1111.3c-0.5-1-0.2-2.2,0.7-2.7c0.9-0.5,2.1-0.2,2.6,0.7c0.5,1,0.2,2.2-0.7,2.7
	S1011.2,1112.2,1010.7,1111.3z"/>
<path class="st9" d="M1007.4,1113.2c0.2,0.3,0.1,0.7-0.2,0.9c-0.3,0.2-0.7,0.1-0.9-0.2c-0.2-0.3-0.1-0.7,0.2-0.9
	C1006.8,1112.8,1007.2,1112.9,1007.4,1113.2z M1005.2,1114.5c-0.5-0.9-0.2-2.2,0.7-2.7c0.9-0.5,2.1-0.2,2.6,0.7
	c0.5,1,0.2,2.2-0.7,2.7C1006.9,1115.8,1005.7,1115.4,1005.2,1114.5z"/>
<path class="st9" d="M1001.9,1116.4c0.2,0.3,0.1,0.7-0.2,0.9c-0.3,0.2-0.7,0.1-0.9-0.2c-0.2-0.3-0.1-0.7,0.2-0.9
	C1001.3,1116,1001.7,1116.1,1001.9,1116.4z M999.7,1117.7c-0.5-0.9-0.2-2.1,0.7-2.7c0.9-0.5,2.1-0.2,2.6,0.7
	c0.5,0.9,0.2,2.1-0.7,2.7C1001.4,1119,1000.2,1118.7,999.7,1117.7z"/>
<path class="st9" d="M996.4,1119.7c0.2,0.3,0.1,0.7-0.2,0.9c-0.3,0.2-0.7,0.1-0.9-0.2c-0.2-0.3-0.1-0.7,0.2-0.9
	C995.8,1119.2,996.2,1119.3,996.4,1119.7z M994.2,1120.9c-0.5-0.9-0.2-2.1,0.7-2.7c0.9-0.5,2.1-0.2,2.6,0.8c0.5,0.9,0.2,2.1-0.7,2.7
	C995.9,1122.2,994.7,1121.9,994.2,1120.9z"/>
<path class="st10" d="M1104.9,680.8c0,0-13.3,108.9-20.7,126.6c-1.1,2.7-2.5,6.1-4.1,10c-8.9,21.8-23.2,58.2-23.2,58.2l0.8,121v0
	l0.6,87.5h-49c-4.9-48.8-21.6-217.6-21.6-224.5c0-8.2,3.4-32.7,11.4-56.1c8-23.4,46.1-122.7,46.1-122.7H1104.9z"/>
<path class="st11" d="M990.3,890c-1.6-17.1-2.6-28.7-2.6-30.4c0-7.6,3-29.3,9.8-51.1c7.8,7.8,12.1,24.5,10.1,43.1
	C1005.6,869,998.8,883.5,990.3,890z"/>
<path class="st12" d="M1080.1,680.8h-34.9c0,0-14.4,37.6-27.4,72C1037.2,706.8,1067.4,685.6,1080.1,680.8z"/>
<path class="st11" d="M1056.9,875.6c0,0,14.4-36.4,23.2-58.2l0,0v0l-4.7-87.2c0,0-36.8,87.9-37.8,147.4c-0.8,47.2,20,119,20,119
	L1056.9,875.6z"/>
<path class="st10" d="M1241.2,1046.2l-34.7,30.6c-21.9-25.2-92.1-106.2-96.5-113.3c-5.4-8.7-18.5-17.1-21.4-40.1
	c-3-23-12.2-127-11.7-168.4c-2.4-42.2-3.3-74-3.3-74h76.8c0,0,13.3,26.3,16.5,36c3.2,9.7,6.2,15.8,3.4,44.4
	c-2.6,27.1-13.2,130.5-14.3,141.1c-0.1,0.6-0.1,0.9-0.1,0.9l0.4,0.8L1241.2,1046.2z"/>
<path class="st13" d="M1166.8,716.8c-3.2-9.7-16.5-36-16.5-36h-21.9c11.7,8.9,36.5,37.5,41.9,80.4
	C1173,732.7,1170,726.5,1166.8,716.8z"/>
<path class="st11" d="M1155.8,903.2c0,0,0-0.3,0.1-0.9c0.1-1,0.3-3,0.6-5.6c-17.9,0-11.8,22.2-8.6,30.1c-2.5-15.2,6.9-17.7,10.7-19
	L1155.8,903.2z"/>
<path class="st3" d="M1248,1063.7l-27,27.4l-1.5-1.4l-11.3-11.1l-1.8-1.8l29.9-26.3l1.9,2.2l8,9.2L1248,1063.7z"/>
<path class="st8" d="M1238.3,1052.6l-30.1,25.9l-1.8-1.8l29.9-26.3L1238.3,1052.6z"/>
<path class="st5" d="M1221,1091.1c-1.3,2.8-1.2,17.4-1.1,24.6c0,2.3-1.3,4.4-3.4,5.1c-10.9,3.2-11.9,7.7-12.9,10.6
	c-0.1,0.3-0.2,0.5-0.3,0.8c-0.4,0.9,0.2,1.9,1.1,1.9h38.6c0.9,0,1.7-0.6,2.1-1.4l20.5-49.8c0.4-1,0.3-2.2-0.3-3.1
	c-0.2-0.2-0.3-0.5-0.5-0.8c-5.9-8.5-16.8-15.3-16.8-15.3L1221,1091.1z"/>
<path class="st2" d="M1220,1115.7c-0.1-7.2-0.3-21.8,1.1-24.6l23.4-23.8c3.9,2.5,11.6,7.7,16.4,13.8c0.2,0.2,0.4,0.5,0.6,0.8
	c0.7,0.9,0.8,2.1,0.3,3.1l-22.6,49h-34.7c-0.9,0-1.6-1-1.2-1.9c0.1-0.2,0.2-0.5,0.3-0.8c0.1-0.2,0.1-0.4,0.2-0.5
	c1-2.9,2.5-7,12.8-10C1218.7,1120.1,1220,1117.9,1220,1115.7z"/>
<path class="st9" d="M1223.2,1093.3c0.3,0,0.6,0.3,0.6,0.7c0,0.4-0.3,0.7-0.6,0.7c-0.3,0-0.6-0.3-0.6-0.7
	C1222.6,1093.6,1222.9,1093.3,1223.2,1093.3z M1223.2,1095.9c-1,0-1.9-0.9-1.9-2c0-1.1,0.9-1.9,1.9-1.9c1,0,1.9,0.9,1.9,2
	S1224.3,1095.9,1223.2,1095.9z"/>
<path class="st9" d="M1223.2,1099.9c0.4,0,0.6,0.3,0.6,0.7s-0.3,0.7-0.6,0.7c-0.4,0-0.6-0.3-0.6-0.7S1222.8,1099.9,1223.2,1099.9z
	 M1223.2,1102.5c-1,0-1.9-0.9-1.9-2c0-1.1,0.9-1.9,1.9-1.9c1,0,1.9,0.9,1.9,2C1225.1,1101.6,1224.2,1102.5,1223.2,1102.5z"/>
<path class="st9" d="M1223.1,1106.4c0.3,0,0.6,0.3,0.6,0.7c0,0.4-0.3,0.6-0.6,0.6s-0.6-0.3-0.6-0.7
	C1222.5,1106.7,1222.8,1106.4,1223.1,1106.4z M1223.1,1109c-1,0-1.9-0.9-1.9-2c0-1.1,0.9-2,1.9-2c1,0,1.9,0.9,1.9,2
	C1225,1108.2,1224.2,1109,1223.1,1109z"/>
<path class="st9" d="M1223.1,1112.9c0.4,0,0.6,0.3,0.6,0.7c0,0.4-0.3,0.7-0.6,0.7c-0.4,0-0.6-0.3-0.6-0.7
	C1222.4,1113.2,1222.7,1112.9,1223.1,1112.9z M1223.1,1115.6c-1.1,0-1.9-0.9-1.9-2c0-1.1,0.9-2,1.9-1.9c1.1,0,1.9,0.9,1.9,2
	C1224.9,1114.7,1224.1,1115.6,1223.1,1115.6z"/>
<path class="st14" d="M1036.8,571.9h25.7c0.7,35.6,23.1,107.8,34.4,147c-22.9-5.3-57.7-7.5-66.5-7.5
	C1018.5,656.6,1032.1,589.1,1036.8,571.9z"/>
<path class="st7" d="M1151.5,760.4c-30.9,18.9-47.9-7.9-52.6-23.7c-20.4-58.8-61.4-206.8-15.8-212.4c50.4,4.4,66.2,41.3,70,52.2
	c15.6,45.1,17.7,79.7,29.9,119.6l10.4,36.8c0.6,2.2-0.4,4.6-2.4,5.7L1151.5,760.4z"/>
<path class="st14" d="M1153.1,576.5c7.6,22,12,41.5,15.9,60.4c-3.5,23.7-26.4,63.6-90.1,33.2c-5.5-21.3-10.4-43.8-13.5-64.7
	c82.2,43.5,7.2-53.3,33.5-78.4C1136.9,536.7,1149.7,566.8,1153.1,576.5z"/>
<path class="st7" d="M1085.9,695.5c-8-27.6-16-60.2-20.3-89.4c-2.6,21.9-1.3,71.8,9.9,87.9C1080.1,694.8,1081,694.5,1085.9,695.5z"
	/>
<path class="st3" d="M1014.7,602.9c23,14.7,27.7,31.6,33.2,46l22.4-30.4c-15.8-9.3-23.1-18.8-28.6-28.4c-3-5.3-7.1-10.2-12.9-11.9
	C1007.6,572.3,1002.5,597.9,1014.7,602.9z"/>
<path class="st14" d="M1047.9,649l22.4-30.4c-6.7-3.9-13.1-9.6-18.9-15.8l-11.6,28.7C1043.5,638.3,1046.2,644.5,1047.9,649z"/>
<path class="st7" d="M1141.7,667.9c-27,10.4-59.8,1.4-98.2-19.2c-2.9-1.5-3.5-5.4-1.2-7.8l26-27.4c106,50-20.7-113,52.7-78
	c13.5,6.4,23.1,20.3,29.4,35C1153.7,578.2,1177,646.7,1141.7,667.9z"/>
<path class="st0" d="M475,1085.8v-25l30.6-5.6v41.3c0,0-18.8,1.6-28.6-6.3C475.6,1089.2,475,1087.5,475,1085.8z"/>
<path class="st15" d="M472.8,1079.9c1.4-3.7,0.3-9-0.5-11.2c7.1-0.4,9.5,3.1,11,5.5c3.2,1.7,13,2.6,14.9,0c0-3.3,4.3-5.9,5.6-6.7
	c1.3-0.7,2.5-0.7,2.9,0.4c0.3,1.1,1,2.2,3,8.3c2.1,6.1,9.2,10.5,16.5,14.8c7.3,4.2,13.5,4.8,20.3,5.7c6.8,0.9,8.6,2.9,9,5.7
	c-1.6,0.2-6.7,1.7-15.6,3.9c-8.9,2.2-16.5,1.5-21.1,1.3c-4.6-0.2-21-0.9-27.8-3.1c-6.8-2.2-18.3-2.6-20-2.6c0.2-2-2.2-7.4-2.1-10.1
	C469.2,1088.9,471.1,1084.5,472.8,1079.9z"/>
<path class="st7" d="M491.1,1104.4c-6.8-2.2-18.3-2.6-20-2.6c-0.5,0-1.5,0.5-1.6,2.4c-0.2,2.4-0.6,7,1,7.2
	c1.6,0.2,16.7,0.4,19.5,0.4s23.2-0.4,28.6-0.2c5.4,0.2,12.1,1.1,20-0.9c7.9-2,12.7-3,15.1-3.5c2.4-0.6,2.9-3.1,1.9-4.8
	c-0.6,0.1-1.6,0.3-3,0.7c-2.6,0.7-6.8,1.8-12.5,3.2c-8.9,2.2-16.5,1.5-21.1,1.3C514.3,1107.4,497.9,1106.6,491.1,1104.4z"/>
<path class="st7" d="M490,1111.8c-2.9,0-17.9-0.2-19.5-0.4c-0.7-0.1-1-0.9-1.1-2c7.2,0.3,22.9,1.2,28.2,2.3
	C493.9,1111.8,490.9,1111.8,490,1111.8z"/>
<path class="st7" d="M491.1,1104.4c-6.8-2.2-18.3-2.6-20-2.6c-0.3,0-0.9,0.2-1.3,1.1c2.5-0.2,8.8-0.4,14,0.7
	c6.5,1.5,11.8,2.8,16.5,3.1c4.8,0.4,13.5,1.3,18.6,1.7l0,0c5.1,0.4,12.7,0.9,21.1-1.3c6.7-1.8,13.4-3.5,15.8-4.1
	c-0.1-0.2-0.2-0.5-0.3-0.7c-0.6,0.1-1.6,0.3-3,0.7c-2.6,0.7-6.8,1.8-12.5,3.2c-8.9,2.2-16.5,1.5-21.1,1.3
	C514.3,1107.4,497.9,1106.6,491.1,1104.4z"/>
<path class="st7" d="M498.2,1074.2c-1.9,2.6-11.8,1.7-14.9,0c0.3,2.4,0.5,8-0.8,10.3c1,0.5,1.9,1,2.5,1.5c3.7,2.4,4.4,3.5,5.7,5.7
	c1.3,2.2,4,4.6,9,3.1c5.1-1.5,5.1-3.1,3.7-5.3C501.1,1086,498.2,1079.3,498.2,1074.2z"/>
<path class="st14" d="M555.5,1102.4c-0.5-2.8-2.2-4.8-9-5.7c-6.8-0.9-13-1.5-20.3-5.7c-7.3-4.2-14.4-8.7-16.5-14.8
	c-2.1-6.1-2.7-7.2-3-8.3c-0.3-1.1-1.6-1.1-2.9-0.4c-0.9,0.5-3.1,1.8-4.5,3.7c1.1-0.7,3.6-1.4,4.5,0.9c1.1,2.9,4.9,15.7,20.2,22.7
	c4.1,1.8,9,3.7,14.6,3.9c5.6,0.2,13,1.1,14,4.4C554,1102.7,555,1102.4,555.5,1102.4z"/>
<path class="st14" d="M472.8,1079.9c-1.7,4.6-3.7,9-3.8,11.8c-0.2,2.8,2.2,8.1,2.1,10.1c1.7,0,13.2,0.4,20,2.6
	c6.8,2.2,23.2,2.9,27.8,3.1c4.6,0.2,12.2,0.9,21.1-1.3c5.7-1.4,9.9-2.6,12.5-3.2c-1-3.2-8.4-4.2-14-4.4c-5.6-0.2-10.5-2-14.6-3.9
	c-15.2-7-19.1-19.7-20.2-22.7c-0.9-2.4-3.3-1.6-4.5-0.9c-0.6,0.9-1.1,1.9-1.1,3c0,5.2,2.9,11.8,5.2,15.3c1.5,2.2,1.4,3.9-3.7,5.3
	c-5.1,1.5-7.8-0.9-9-3.1c-1.3-2.2-2.1-3.3-5.7-5.7c-0.7-0.4-1.6-0.9-2.5-1.5C479.3,1082.8,475,1080.8,472.8,1079.9z"/>
<path class="st14" d="M472.3,1068.6c0.7,2.2,1.9,7.6,0.5,11.2c2.2,0.9,6.5,2.9,9.7,4.6c1.3-2.4,1.1-7.9,0.8-10.3
	C481.9,1071.8,479.5,1068.2,472.3,1068.6z"/>
<path class="st10" d="M474,1062.7c-27.5-65.6-11.4-305.3,0-416.9l129.8-7.1c-1.5,31.7-40.1,152.2-59.2,208.4
	c-6.1,15.3-23.5,146.3-31.5,209.9C503.2,1066.1,482.9,1064.6,474,1062.7z"/>
<path class="st11" d="M474,645.8c-11.4,111.6-27.5,351.3,0,416.9c2.3,0.5,5.5,1,9,1.2c-20-85.7-2.3-315.1,9-419.2L474,645.8z"/>
<path class="st0" d="M609.9,1075c-24.4-0.8-23.9-16.2-27.8-30.9l32.1-6.2c3.7,20.4,2.3,30,2.3,30S617.9,1075.2,609.9,1075z"/>
<path class="st15" d="M583.8,1064.9c1.4-3.7,0.3-9-0.5-11.2c7.1-0.4,9.5,3.1,11,5.5c3.2,1.7,13,2.6,14.9,0c0-3.3,4.3-5.9,5.6-6.7
	c1.3-0.7,2.5-0.7,2.9,0.4c0.3,1.1,1,2.2,3,8.3c2.1,6.1,9.2,10.5,16.5,14.8c7.3,4.2,13.5,4.8,20.3,5.7c6.8,0.9,8.6,2.9,9.1,5.7
	c-1.6,0.2-6.7,1.7-15.6,3.9c-8.9,2.2-16.5,1.5-21.1,1.3c-4.6-0.2-21-0.9-27.8-3.1c-6.8-2.2-18.3-2.6-20-2.6c0.2-2-2.2-7.4-2.1-10.1
	C580.2,1073.9,582.1,1069.5,583.8,1064.9z"/>
<path class="st7" d="M602.1,1089.4c-6.8-2.2-18.3-2.6-20-2.6c-0.5,0-1.5,0.5-1.6,2.4c-0.2,2.4-0.6,7,1,7.2
	c1.6,0.2,16.7,0.4,19.5,0.4c2.9,0,23.2-0.4,28.6-0.2c5.4,0.2,12.1,1.1,20-0.9c7.9-2,12.7-3,15.1-3.5c2.4-0.6,2.9-3.1,1.9-4.8
	c-0.6,0.1-1.6,0.3-3,0.7c-2.6,0.7-6.8,1.8-12.5,3.2c-8.9,2.2-16.5,1.5-21.1,1.3C625.3,1092.4,608.9,1091.6,602.1,1089.4z"/>
<path class="st7" d="M601,1096.8c-2.9,0-17.9-0.2-19.5-0.4c-0.7-0.1-1-0.9-1.1-2c7.2,0.3,22.9,1.2,28.2,2.3
	C604.9,1096.8,601.9,1096.8,601,1096.8z"/>
<path class="st7" d="M602.1,1089.4c-6.8-2.2-18.3-2.6-20-2.6c-0.3,0-1,0.2-1.3,1.1c2.5-0.2,8.8-0.4,14,0.7
	c6.5,1.5,11.8,2.8,16.5,3.1c4.8,0.4,13.5,1.3,18.6,1.7l0,0c5.1,0.4,12.7,0.9,21.1-1.3c6.7-1.8,13.4-3.5,15.8-4.1
	c-0.1-0.2-0.2-0.5-0.3-0.7c-0.6,0.1-1.6,0.3-3,0.7c-2.6,0.7-6.8,1.8-12.5,3.2c-8.9,2.2-16.5,1.5-21.1,1.3
	C625.3,1092.4,608.9,1091.6,602.1,1089.4z"/>
<path class="st7" d="M609.2,1059.2c-1.9,2.6-11.8,1.7-14.9,0c0.3,2.4,0.5,8-0.8,10.3c1,0.5,1.9,1,2.5,1.5c3.7,2.4,4.4,3.5,5.7,5.7
	c1.3,2.2,4,4.6,9,3.1c5.1-1.5,5.1-3.1,3.7-5.3C612.1,1071,609.2,1064.3,609.2,1059.2z"/>
<path class="st14" d="M666.5,1087.4c-0.5-2.8-2.2-4.8-9-5.7c-6.8-0.9-13-1.5-20.3-5.7c-7.3-4.2-14.4-8.7-16.5-14.8
	c-2.1-6.1-2.7-7.2-3-8.3c-0.3-1.1-1.6-1.1-2.9-0.4c-0.9,0.5-3.1,1.8-4.5,3.7c1.1-0.7,3.6-1.4,4.5,0.9c1.1,2.9,4.9,15.7,20.2,22.7
	c4.1,1.8,9,3.7,14.6,3.9c5.6,0.2,13,1.1,14,4.4C665,1087.7,666,1087.4,666.5,1087.4z"/>
<path class="st14" d="M583.8,1064.9c-1.7,4.6-3.7,9-3.8,11.8c-0.2,2.8,2.2,8.1,2.1,10.1c1.7,0,13.2,0.4,20,2.6
	c6.8,2.2,23.2,2.9,27.8,3.1c4.6,0.2,12.2,0.9,21.1-1.3c5.7-1.4,9.9-2.6,12.5-3.2c-1-3.2-8.4-4.2-14-4.4c-5.6-0.2-10.5-2-14.6-3.9
	c-15.2-7-19.1-19.7-20.2-22.7c-0.9-2.4-3.3-1.6-4.5-0.9c-0.6,0.9-1.1,1.9-1.1,3c0,5.2,2.9,11.8,5.2,15.3c1.5,2.2,1.4,3.9-3.7,5.3
	c-5.1,1.5-7.8-0.9-9-3.1c-1.3-2.2-2.1-3.3-5.7-5.7c-0.7-0.4-1.6-0.9-2.5-1.5C590.3,1067.8,586,1065.8,583.8,1064.9z"/>
<path class="st14" d="M583.3,1053.6c0.7,2.2,1.9,7.6,0.5,11.2c2.2,0.9,6.5,2.9,9.7,4.6c1.3-2.4,1.1-7.9,0.8-10.3
	C592.9,1056.8,590.5,1053.2,583.3,1053.6z"/>
<path class="st10" d="M641,797.5c-17.5,98.5-23.6,204-23.9,243.4c-10.7,7.6-29.3,8.3-37.2,7.6c-9.9-47.3-27.3-154.6-35.2-201.4
	c0,0-26.6-97.9-26.7-98.6L548,643.1l55.8-4.5l44.8-2.4C653.4,648.9,658.5,699,641,797.5z"/>
<path class="st11" d="M544.6,847.1c8,46.8,25.3,154.1,35.3,201.4c2.7,0.2,6.5,0.3,10.8,0l-29.7-251
	C554.9,816.3,549.2,833.5,544.6,847.1z"/>
<path class="st11" d="M548,836c11.2-33.7,38.1-115.2,49.5-155.4C598.7,709.9,581.1,809.3,548,836z"/>
<path class="st7" d="M570.4,392c2.3,11.5,16.2,8,22.9,4.8c-4.8-6.7-20-15.3-15.3-29.6c3.8-11.4,18.1,2.9,24.8,11.4v-42h36.3
	c28.2-2.3,32.8-23.2,31.5-33.4c-27.7,1.9-22.9-9.3-31.5-13.4c-13.5-6.4-34.5-5.1-49.5-2.5c-7.2,1.2-12.6,6.9-15.4,13.7
	c-3.4,8.2-7.5,14.5-11.1,19.1c-4.6,5.7-9.7,11.3-11.8,18.4c-2.5,8.6-3.7,18.3,1,21.9C570.4,370,567.5,377.6,570.4,392z"/>
<path class="st0" d="M602.8,336.6h36.3c3.1-0.3,6-0.7,8.6-1.4c20.6,39.7-2.2,62.6-16.2,69.2l-9.5,34.3
	c-15.3,14.2-29.3-5.1-35.3-15.3l6.7-26.7c-4.8-6.7-20-15.3-15.3-29.6c3.8-11.4,18.1,2.9,24.8,11.4V336.6z"/>
<path class="st16" d="M602.8,396.7c7.6,7.6,22.3,8.3,28.6,7.6l-3.7,13.4C612.5,417.7,604.8,403.7,602.8,396.7z"/>
<path class="st0" d="M721.9,446.1c-14.2,66.7-28.8,59.1-48.5,52.8c-42,14.5-32.8,47.4-22.9,62c41,32.4,96.1,0,101.6-130.2
	C754.3,380.7,727.7,418.9,721.9,446.1z"/>
<path class="st2" d="M755.5,434c-4.8,60-33.5,169.7-102.2,132.2c2.8,35.8,5.3,86.6,5.7,104.8c-58.2,26.7-172.2,15.3-197,0
	c3.8-19.1,24.4-102.5,40.6-134c2.4-4.6,3.6-8.1,4-10.5c1.7-10.8-30.7-12-86.7,79.5h-34c0-114.5,140.2-176.9,179.6-182.2
	c7.8-1.1,15-1.8,21-2.2c14.3,25.9,27.2,23.8,33.4,18.3c0.7-0.7,1.4-1.4,1.9-2.1c11.4,6.1,44.2,40.7,59.2,57.2
	c9.5,5.5,31.6,0.1,44.4-65.5L755.5,434z"/>
<path class="st7" d="M363.9,664l26.7,31c2.2,2.5,6,2.8,8.5,0.6l48.5-42c2.5-2.2,2.8-5.9,0.6-8.4l-26.4-31c-2.2-2.5-6-2.8-8.5-0.7
	l-48.8,42C362,657.7,361.8,661.5,363.9,664z"/>
<path class="st17" d="M373.1,662.4l19.9,23c2.1,2.5,5.9,2.8,8.4,0.7l36.8-30.7c2.6-2.1,2.9-6,0.7-8.5l-20.2-23.6
	c-2.2-2.5-5.9-2.8-8.5-0.7L373.8,654C371.2,656.1,371,659.9,373.1,662.4z"/>
<path class="st17" d="M432.1,629.8c1.3-0.1,2.4,0.8,2.5,2.1c0.1,1.3-0.8,2.4-2.1,2.5c-1.3,0.1-2.4-0.8-2.5-2.1
	C429.9,631.1,430.8,630,432.1,629.8z"/>
<path class="st17" d="M382.6,678.6c0.4,0,0.8,0.3,0.8,0.7c0,0.4-0.3,0.8-0.7,0.8c-0.4,0-0.8-0.3-0.8-0.7
	C381.9,679,382.2,678.7,382.6,678.6z"/>
<path class="st18" d="M377.6,673.3c0.4-0.4,1-0.4,1.4,0.1l3.2,3.5c0.4,0.4,0.4,1-0.1,1.4c-0.4,0.4-1,0.4-1.4-0.1l-3.2-3.5
	C377.1,674.3,377.1,673.6,377.6,673.3z"/>
</svg>
