<?xml version="1.0" encoding="utf-8"?>
<!-- Generator: Adobe Illustrator 26.0.2, SVG Export Plug-In . SVG Version: 6.00 Build 0)  -->
<svg version="1.1" id="Laag_1" xmlns="http://www.w3.org/2000/svg" xmlns:xlink="http://www.w3.org/1999/xlink" x="0px" y="0px"
	 viewBox="0 0 1500 1200" style="enable-background:new 0 0 1500 1200;" xml:space="preserve">
<style type="text/css">
	.st0{fill:#FBBBBC;}
	.st1{fill:#24869E;}
	.st2{fill:#FFFFFF;}
	.st3{fill:#BCDAE2;}
	.st4{fill:#EFF5FF;}
	.st5{fill:#91C2CE;}
	.st6{fill:url(#SVGID_1_);}
	.st7{fill:#4E9DB0;}
</style>
<g>
	<path class="st0" d="M667.6,1057.5h50.7v87.5h-50.7V1057.5z"/>
	<path class="st1" d="M725.1,1141.3c-1.2-18.1-1.1-27.1-7.3-29c-2.3,7.1-17.9,15.5-31.6,8.3c-17.1-9.1-12.5-12.3-23.3-12.3
		c-10.8,0-34.1,18.8-57.3,28.5c-12.1,5.1-30.5,3.4-31.1,15.1c10.9,0,28,0.4,42.8,0c18.9-0.7,63-5.1,83.2,0
		C725.4,1158.1,726.7,1163.9,725.1,1141.3z"/>
	<path class="st2" d="M614,1132.8c-0.9,0.4-1.8,0.9-2.7,1.3l5.6,5.5c0.6,0.5,1.5,0.6,2.2,0.2c0.7-0.5,0.7-1.3,0.2-1.8L614,1132.8z"
		/>
	<path class="st2" d="M620.1,1129.6c-0.9,0.5-1.8,0.9-2.6,1.4l4.9,4.8c0.6,0.5,1.5,0.6,2.2,0.2c0.7-0.5,0.7-1.3,0.2-1.8
		L620.1,1129.6z"/>
	<path class="st2" d="M626.2,1126.2c-0.9,0.5-1.7,1-2.6,1.5l5,4.9c0.6,0.5,1.5,0.6,2.2,0.2c0.7-0.5,0.7-1.3,0.2-1.8L626.2,1126.2z"
		/>
	<path class="st2" d="M632.6,1122.5c-0.8,0.5-1.7,1-2.6,1.5l4.8,4.7c0.6,0.5,1.5,0.6,2.2,0.2c0.7-0.5,0.7-1.3,0.2-1.8L632.6,1122.5z
		"/>
	<path class="st2" d="M638.5,1119c-0.8,0.5-1.7,1-2.5,1.5l5,4.9c0.6,0.5,1.5,0.6,2.2,0.2c0.7-0.5,0.7-1.3,0.2-1.8L638.5,1119z"/>
	<path class="st2" d="M644,1115.8c-0.8,0.5-1.7,1-2.6,1.5l5,4.9c0.6,0.5,1.5,0.6,2.2,0.1c0.7-0.5,0.7-1.3,0.2-1.8L644,1115.8z"/>
	<path class="st2" d="M649.6,1112.8c-0.9,0.5-1.7,0.9-2.6,1.4l4.9,4.8c0.6,0.5,1.5,0.6,2.2,0.1c0.7-0.5,0.7-1.3,0.2-1.8
		L649.6,1112.8z"/>
	<path class="st3" d="M617.3,1151.8c18.9-0.7,63-5.1,83.2,0c20.1,5,23.6,8,25.2-3.4c0,2.8,0.2,8.3,0.2,12.4c0,5.2-8.8,4.5-19.9,4.5
		h-96.4c-18.7,0-37.3-0.7-35-13.6C585.4,1151.8,602.5,1152.3,617.3,1151.8z"/>
	<path class="st4" d="M574.5,1151.8c10.9,0,28,0.4,42.8,0c10.1-3.9,1.6-5.2,4.7-9.7c37.3-19.7,58.1-4.1,60.7,7.5
		c6.9,0.3,13.1,1,17.9,2.2c-3.1-8.6-14-26.6-32.7-29.1c-23.3-3.2-42.8,14.2-50.6,15.5c-6.2,1-10.4-0.6-11.7-1.5
		c3.1,2.5,7.9,7.4,2.3,7.4c-5.6,0-22.6,0.9-30.3,1.4C575.8,1147,574.7,1149,574.5,1151.8z"/>
	<path class="st1" d="M649.1,1098.4c5.9,1,76.6-1.6,76.6-1.6c15-150.3,36.8-377.8,36.8-543.4H636.5
		C638.8,645.6,649.1,1098.4,649.1,1098.4z"/>
	<path class="st0" d="M829.9,1057.5h50.7v87.5h-50.7V1057.5z"/>
	<path class="st1" d="M887.4,1141.3c-1.2-18.1-1.1-27.1-7.3-29c-2.3,7.1-17.9,15.5-31.6,8.3c-17.1-9.1-12.5-12.3-23.3-12.3
		s-34.1,18.8-57.3,28.5c-12.1,5.1-30.5,3.4-31.1,15.1c10.9,0,28,0.4,42.8,0c18.9-0.7,63-5.1,83.2,0
		C887.7,1158.1,889,1163.9,887.4,1141.3z"/>
	<path class="st2" d="M776.3,1132.8c-0.9,0.4-1.8,0.9-2.7,1.3l5.6,5.5c0.6,0.5,1.5,0.6,2.2,0.2c0.7-0.5,0.7-1.3,0.2-1.8
		L776.3,1132.8z"/>
	<path class="st2" d="M782.4,1129.6c-0.9,0.5-1.8,1-2.6,1.4l4.9,4.8c0.6,0.5,1.5,0.6,2.2,0.2c0.7-0.5,0.7-1.3,0.2-1.8L782.4,1129.6z
		"/>
	<path class="st2" d="M788.5,1126.2c-0.9,0.5-1.7,1-2.6,1.5l5,4.9c0.6,0.5,1.5,0.6,2.2,0.2c0.7-0.5,0.7-1.3,0.2-1.8L788.5,1126.2z"
		/>
	<path class="st2" d="M794.9,1122.5c-0.8,0.5-1.7,1-2.6,1.5l4.8,4.7c0.6,0.5,1.5,0.6,2.2,0.2c0.7-0.5,0.7-1.3,0.2-1.8L794.9,1122.5z
		"/>
	<path class="st2" d="M800.9,1119c-0.8,0.5-1.7,1-2.5,1.5l5,4.9c0.6,0.5,1.5,0.6,2.2,0.2c0.7-0.5,0.7-1.3,0.2-1.8L800.9,1119z"/>
	<path class="st2" d="M806.4,1115.8c-0.8,0.5-1.7,1-2.6,1.5l5,4.9c0.6,0.5,1.5,0.6,2.2,0.1c0.7-0.5,0.7-1.3,0.2-1.8L806.4,1115.8z"
		/>
	<path class="st2" d="M812,1112.8c-0.9,0.4-1.7,0.9-2.6,1.4l4.9,4.8c0.6,0.5,1.5,0.6,2.2,0.1c0.7-0.5,0.7-1.3,0.2-1.8L812,1112.8z"
		/>
	<path class="st4" d="M736.8,1151.8c10.9,0,28,0.4,42.8,0c10.1-3.9,1.6-5.2,4.7-9.7c37.3-19.7,58.1-4.1,60.7,7.5
		c6.9,0.3,13.1,1,17.9,2.2c-3.1-8.6-14-26.6-32.7-29.2c-23.3-3.2-42.8,14.2-50.6,15.6c-6.2,1-10.4-0.6-11.7-1.5
		c3.1,2.4,7.9,7.4,2.3,7.4c-5.6,0-22.6,0.9-30.3,1.4C738.1,1147,737,1149,736.8,1151.8z"/>
	<path class="st3" d="M779.6,1151.8c18.9-0.7,63-5.1,83.2,0c20.1,5,23.6,8,25.2-3.4c0,2.8,0.2,8.3,0.2,12.4c0,5.2-8.8,4.5-19.9,4.5
		h-96.4c-18.7,0-37.3-0.6-35-13.6C747.7,1151.8,764.8,1152.3,779.6,1151.8z"/>
	<path class="st1" d="M888,1097.2c-5.9,1-70.3,0-70.3,0c-22.4-147.3-66.1-375.8-90.9-541.6H888C888,664.4,888,1097.2,888,1097.2z"/>
	<path class="st2" d="M768.9,466.8c0,2.5,0,5,0,7.7v6c0-2.1,0-4.2,0-6C768.9,471.8,768.9,469.2,768.9,466.8z"/>
	<path class="st2" d="M769.1,447.5c0,1.5,0,3-0.1,4.6C769,450.6,769,449,769.1,447.5z"/>
	<path class="st2" d="M775.2,366c-0.1,0.9-0.2,1.7-0.4,2.6c0.2-1.3,0.3-2.6,0.5-3.9C775.3,365.2,775.3,365.6,775.2,366z"/>
	<path class="st2" d="M934.1,803.1c-8.8-0.4-32.3,0.7-55.8,8.1c-23.5,7.4-78.5,11.5-103,12.7c-1.5-63.7-4-179.1-5.3-263.6l-1,0
		h-61.8l-38,6.6l11.8-328.7l26.9-24.4c0,16.7,14.4,26.5,25.9,26.5c35.5,0,44.3-33.4,44.3-41.4c14.3,16.1,64.3,27.4,87.5,31.1
		c0,16.1,0.5,55.8,2.3,85.8c2.3,37.4,7.5,93.8,22.5,142.8c15,48.9,20.7,158.3,27,226.8C922.4,739.9,930.6,786.6,934.1,803.1z"/>
	<path class="st2" d="M807.4,561.2l-37.6-1c-0.3-17.8-0.5-34.3-0.7-48.6L807.4,561.2z"/>
	<path class="st5" d="M778.1,343.8c4.1-34.5,1.7-111.1,0-145.1c5.1,5.7,14.6,10.8,25.9,15.2c19.3,23.2,20.3,66.5,19.6,84.9
		L801.1,311c3.1,3.3,8.7,13.5,16.1,23.6c-12.4,23.9-36.5,62.5-46.9,78.9C771.9,386.4,774.8,371.5,778.1,343.8z"/>
	<path class="st3" d="M867.9,315.6c2.3,37.4,7.5,93.8,22.4,142.8c3.7,12,6.8,27.7,9.5,45.5c-121.7,0-163.2-45.5-93.5-63.3
		s53-59.9,41.4-104.8c-9.2-35.9,8.1-85.6,17.8-105.9C865.6,245.9,866,285.6,867.9,315.6z"/>
	<path class="st5" d="M641.1,395.6c0,19.4-0.1,42.2-0.4,66.8c-0.3,0.3-0.6,0.6-0.9,0.9C640.5,438.7,641.1,415.7,641.1,395.6z"/>
	<path class="st5" d="M712.5,821.5c-23,2.9-48.9,2.3-66.8-2.9c-17.8-5.2-8.6-20.1-11.5-99c-2.7-73.2,2.9-173.8,5.6-256.4
		c0.3-0.3,0.6-0.6,0.9-0.9c0.3-24.6,0.4-47.3,0.4-66.8c0,20.2-0.5,43.1-1.3,67.6c-17.7,15.4-45.8,4.4-41.8-22.7
		c4-27.6,18.4-128.9,22.4-147.3c3.2-14.7,15.2-26.1,20.7-29.9v0l66.8-49.5c-1.2,85.2-3.1,266.7-1.7,311.4
		C707.9,580.9,712.5,791,712.5,821.5z"/>
	<path class="st5" d="M641.1,395.6c0,19.4-0.1,42.2-0.4,66.8c-0.3,0.3-0.6,0.6-0.9,0.9C640.5,438.7,641.1,415.7,641.1,395.6z"/>
	<path class="st2" d="M768.9,466.8c0,2.5,0,5,0,7.7v6c0-2.1,0-4.2,0-6C768.9,471.8,768.9,469.2,768.9,466.8z"/>
	<path class="st2" d="M769.1,447.5c0,1.5,0,3-0.1,4.6C769,450.6,769,449,769.1,447.5z"/>
	<path class="st2" d="M775.2,366c-0.1,0.9-0.2,1.7-0.4,2.6c0.2-1.3,0.3-2.6,0.5-3.9C775.3,365.2,775.3,365.6,775.2,366z"/>
	<path class="st2" d="M807.4,561.2l-37.6-1c-0.3-17.8-0.5-34.3-0.7-48.6L807.4,561.2z"/>
	<path class="st0" d="M707.9,213.7c0,16.7,14.4,26.5,25.9,26.5c30.6,0,43.2-24.8,44.3-40.9c-9.6-13.4-9.6-29.9-8.1-38.6l-62.7,34
		L707.9,213.7z"/>
	
		<linearGradient id="SVGID_1_" gradientUnits="userSpaceOnUse" x1="758.2618" y1="1040.3956" x2="758.2618" y2="960.9616" gradientTransform="matrix(-1 0 0 -1 1500.9412 1201.1301)">
		<stop  offset="0" style="stop-color:#FFA3A5"/>
		<stop  offset="1" style="stop-color:#FBBBBC"/>
	</linearGradient>
	<path class="st6" d="M707.9,213.7c0,16.7,14.4,26.5,25.9,26.5c30.6,0,43.2-24.8,44.3-40.9c-9.6-13.4-9.6-29.9-8.1-38.6l-62.7,34
		L707.9,213.7z"/>
	<path class="st0" d="M665.3,111.9c0,3.1,0.9,10.1,1.7,13.2c2.4,11,10.9,36.8,22.8,52.8c14.1,19.1,22.4,22.9,33.2,24.9
		c3.6,0.7,7.1,0.7,10.7,0c10.7-2.1,23.3-9.9,29.7-22.3c8.4-16.2,9.5-26,11-34.9c5.2,0,10.2-0.2,14-11.8c3.9-11.6,0.4-19.9-3.5-22.4
		c-9.7-6.5-18.9-4-19.6,1.2c-4.6-2.9-10.4-4-16.1-0.6c-7-7.9,2.6-44.9-14.3-27.1C724.7,81.9,687.1,91.7,665.3,111.9z"/>
	<path class="st1" d="M667,114.1c10.1-6,25.2-3.2,37.4-7.5c15.5-5.4,20.6-12.5,30.9-21.5c10.3-9,8.3,1.9,7.7,8.3
		c-0.6,6.4-0.6,14.1,4.5,19.9c5.1,5.8,16.2-2.7,16.2,14c0,8.6,2.3,6.4,3.5,2.9c4.6-13.8,11.5-21.3,20.1-16.9
		c1.3-15.4,4.4-41.1-2-50.7c-6.4-9.6-11.8-11.2-20.4-7.8c-19.6-32.2-43.7-21.9-62.2,2.3c-15.7,20.6-51.2,19.3-52.4,40.9
		C649.7,109.1,664.3,115.7,667,114.1z"/>
	<path class="st7" d="M507,341.2c-1.7-3,0.5-6.7,4-6.8l138.7-2.7c1.7,0,3.3,0.9,4.1,2.4l87.6,158.9c1.7,3-0.5,6.8-4,6.8L597.6,502
		c-1.7,0-3.3-0.9-4.1-2.4L507,341.2z"/>
	<path class="st1" d="M649.6,331.7l-138.7,2.7c-1.5,0-2.8,0.7-3.6,1.8c-0.2-2.7,1.4-8,9.2-8c9.8,0,121.5-2.9,132.4-2.9
		c10.9,0,10.4,1.2,15.5,10.4c5.2,9.2,76,138.1,81.2,146.8c5.2,8.6,4.2,17.4-8.2,17.4c3.5-0.1,5.6-3.8,4-6.8l-87.6-158.9
		C652.9,332.6,651.3,331.7,649.6,331.7z"/>
	<path class="st1" d="M856.9,488.3c6.7-12.1,12.9-39.7-16.1-53.5C838.7,451,839,484.6,856.9,488.3z"/>
	<path class="st1" d="M838.5,407.8c-2.6,2.4-3.4,3.4-18.5,18c-15.3,15.2-36.2,32.3-47.9,47.4c-2.7,3.4-6.4,7.8-9.7,9.4
		c-3.4,1.6-3.9,2.4-4.2,5.1c-0.2,2.1-2.4,6.4-3.4,8.2c1.5-0.9,5.2-3,8.3-3.9c3.8-1.1,3.1-0.9,5.3-4.7c2.3-3.8,4-5.1,10.4-10.1
		c6.4-4.9,24.3-23.6,30.9-31c6.6-7.4,23.5-25.5,26.3-28.2s8-7.1,7.9-9.4C843.8,406.4,841.1,405.4,838.5,407.8z"/>
	<path class="st0" d="M783.8,438.8c18.9,1.4,48.7-0.6,61.3-1.7c15.6,9.3,18.6,23.3,17.1,35.1c-9.7,1.2-28.3,6.3-47.3,16.1
		s-43.7,2.3-50.1-10.9C758.5,464.1,760.2,437,783.8,438.8z"/>
	<path class="st2" d="M889.2,248.2c-6.9-13.4-18.6-17.8-23.6-18.4c-29.9,6.9-33.4,80-22.4,97.3c8.8,13.8,45.9,64.9,63.3,88.6
		c-16.5,4.6-52.7,14.9-65.6,19c29,13.8,22.8,41.4,16.1,53.5c19.8,0.6,67.5-2,100.2-16.7c40.9-18.4,46.6-36.8,21.3-77.1
		C953.1,354.1,897.8,264.9,889.2,248.2z"/>
</g>
</svg>
