<svg id="Laag_1" data-name="Laag 1" xmlns="http://www.w3.org/2000/svg" viewBox="0 0 2000 1103.14"><defs><style>.cls-1{fill:#333;}</style></defs><path class="cls-1" d="M595.68,506.2q-43.81-44.42-115.75-44.43T363.84,506.2q-44.13,44.43-44.11,117T363.54,739.6q43.79,43.83,116.39,43.81,71.94,0,115.75-44.14t43.78-116.06Q639.46,550.63,595.68,506.2ZM571.27,623q0,41.26-25.1,66.54t-66.41,25.3q-41.6,0-66.74-25.1T387.92,623v-.36h40.55V623q0,24.4,14.17,39.63t37.12,15.25q23,0,37-15.25t14-39.63v-.36h40.55Z"/><path class="cls-1" d="M990.51,759.62q5,7.5,2.5,12.51c-1.67,3.35-5.42,5-11.26,5H930.44q-11.27,0-17.52-8.76l-87.6-125.15-50.06,50.69v68.83q0,14.4-14.39,14.39H720.2a14.4,14.4,0,0,1-14.4-14.39V334.12q0-14.39,14.4-14.39h40.67a14.39,14.39,0,0,1,14.39,14.39V605.69L901.66,478q8.12-8.13,18.77-8.13h49.43c5.84,0,9.59,1.78,11.27,5.31s.62,7.42-3.13,11.58L874.13,593.17Z"/><path class="cls-1" d="M1166.34,783.4q-72.58,0-116.38-43.81t-43.81-116.38q0-72.59,44.12-117t116.07-44.43q72,0,115.76,44.43t43.8,117q0,72-43.8,116.07T1166.34,783.4Zm-64.76-91q24.7,26.61,64.76,26.6t64.45-26.6q24.4-26.58,24.4-69.14,0-43.79-24.4-70.4t-64.45-26.59q-40,0-64.76,26.59t-24.72,70.4Q1076.86,665.77,1101.58,692.35Z"/><path class="cls-1" d="M1676.94,759.62q5,7.5,2.5,12.51c-1.67,3.35-5.43,5-11.27,5h-51.3q-11.26,0-17.53-8.76l-87.6-125.15-50.06,50.69v68.83q0,14.4-14.39,14.39h-40.67a14.4,14.4,0,0,1-14.39-14.4V334.12q0-14.39,14.39-14.39h40.67a14.39,14.39,0,0,1,14.39,14.39V605.69L1588.08,478q8.13-8.13,18.77-8.13h49.44c5.83,0,9.59,1.78,11.26,5.31s.62,7.42-3.13,11.58L1560.55,593.17Z"/><path class="cls-1" d="M639.46,334.12V374.8a14.39,14.39,0,0,1-14.39,14.39h-291a14.4,14.4,0,0,1-14.39-14.39V334.12a14.39,14.39,0,0,1,14.39-14.39h291A14.39,14.39,0,0,1,639.46,334.12Z"/></svg>