<svg id="Laag_1" data-name="Laag 1" xmlns="http://www.w3.org/2000/svg" viewBox="0 0 2000 2000"><defs><style>.cls-1{fill:#e6e6e6;}</style></defs><path class="cls-1" d="M595.68,954.64q-43.81-44.43-115.75-44.44T363.84,954.64q-44.13,44.42-44.11,117T363.54,1188q43.79,43.83,116.39,43.81,71.94,0,115.75-44.14t43.78-116.06Q639.46,999.06,595.68,954.64Zm-24.41,116.74q0,41.26-25.1,66.54t-66.41,25.3q-41.6,0-66.74-25.1t-25.1-66.74V1071h40.55v.36q0,24.4,14.17,39.63t37.12,15.25q23,0,37-15.25t14-39.63V1071h40.55Z"/><path class="cls-1" d="M990.51,1208.05q5,7.5,2.5,12.51c-1.67,3.35-5.42,5-11.26,5H930.44q-11.27,0-17.52-8.76l-87.6-125.15-50.06,50.69v68.83q0,14.4-14.39,14.39H720.2a14.4,14.4,0,0,1-14.4-14.39V782.55q0-14.38,14.4-14.39h40.67a14.39,14.39,0,0,1,14.39,14.39v271.57l126.4-127.65q8.12-8.12,18.77-8.13h49.43q8.76,0,11.27,5.32c1.66,3.54.62,7.41-3.13,11.57L874.13,1041.61Z"/><path class="cls-1" d="M1166.34,1231.83q-72.58,0-116.38-43.8t-43.81-116.39q0-72.59,44.12-117t116.07-44.43q72,0,115.76,44.43t43.8,117q0,72-43.8,116.07T1166.34,1231.83Zm-64.76-91q24.7,26.61,64.76,26.6t64.45-26.6q24.4-26.58,24.4-69.14,0-43.79-24.4-70.39t-64.45-26.6q-40,0-64.76,26.6t-24.72,70.39Q1076.86,1114.2,1101.58,1140.78Z"/><path class="cls-1" d="M1676.94,1208.05q5,7.5,2.5,12.51c-1.67,3.35-5.43,5-11.27,5h-51.3q-11.26,0-17.53-8.76l-87.6-125.15-50.06,50.69v68.83q0,14.4-14.39,14.39h-40.67a14.39,14.39,0,0,1-14.39-14.39V782.55q0-14.38,14.39-14.39h40.67a14.39,14.39,0,0,1,14.39,14.39v271.57l126.4-127.65q8.13-8.12,18.77-8.13h49.44q8.74,0,11.26,5.32c1.66,3.54.62,7.41-3.13,11.57l-103.87,106.38Z"/><path class="cls-1" d="M639.46,782.55v40.68a14.39,14.39,0,0,1-14.39,14.39h-291a14.4,14.4,0,0,1-14.39-14.39V782.55a14.39,14.39,0,0,1,14.39-14.39h291A14.39,14.39,0,0,1,639.46,782.55Z"/></svg>