<svg id="Laag_1" data-name="Laag 1" xmlns="http://www.w3.org/2000/svg" viewBox="0 0 2000 2000"><defs><style>.cls-1{fill:#b26ca1;}</style></defs><path class="cls-1" d="M1242.05,905.41q-91.38-92.62-241.36-92.66T758.64,905.41q-92,92.63-92,244T758,1392.05q91.29,91.38,242.67,91.35,150,0,241.36-92t91.28-242Q1333.33,998,1242.05,905.41Zm-50.9,243.42q0,86-52.34,138.75t-138.47,52.75q-86.74,0-139.15-52.34t-52.34-139.16v-.75H893.4v.75q0,50.89,29.53,82.63t77.41,31.8q47.91,0,77.07-31.8t29.19-82.63v-.75h84.55Z"/><path class="cls-1" d="M1333.33,546.61v84.8a30,30,0,0,1-30,30H696.68a30,30,0,0,1-30-30v-84.8a30,30,0,0,1,30-30h606.64A30,30,0,0,1,1333.33,546.61Z"/></svg>