<svg id="Laag_1" data-name="Laag 1" xmlns="http://www.w3.org/2000/svg" viewBox="0 0 2000 2000"><defs><style>.cls-1{fill:#b26ca1;}</style></defs><path class="cls-1" d="M907,930.93q-66.74-67.63-176.25-67.66T554,930.93q-67.19,67.64-67.16,178.15t66.71,177.2Q620.18,1353,730.72,1353q109.53,0,176.25-67.21t66.65-176.7Q973.62,998.56,907,930.93ZM869.8,1108.68q0,62.82-38.22,101.32t-101.11,38.51q-63.35,0-101.62-38.21t-38.22-101.62v-.55h61.74v.55q0,37.17,21.57,60.34t56.53,23.22q35,0,56.27-23.22t21.32-60.34v-.55H869.8Z"/><path class="cls-1" d="M1508.11,1316.77q7.62,11.43,3.81,19t-17.14,7.62h-78.13q-17.14,0-26.67-13.33L1256.6,1139.56l-76.22,77.17v104.8q0,21.93-21.91,21.91h-61.93a21.91,21.91,0,0,1-21.91-21.91V668.92q0-21.9,21.91-21.91h61.93a21.91,21.91,0,0,1,21.91,21.91V1082.4l192.45-194.35q12.38-12.37,28.58-12.39h75.26q13.33,0,17.15,8.1c2.53,5.4,1,11.28-4.76,17.63l-158.15,162Z"/><rect class="cls-1" x="486.81" y="647.01" width="486.81" height="105.75" rx="21.91"/></svg>